<svg xmlns="http://www.w3.org/2000/svg" viewBox="0 0 32 32" fill="none">
  <defs>
    <linearGradient id="g" x1="0" y1="0" x2="32" y2="32" gradientUnits="userSpaceOnUse">
      <stop stop-color="#5eead4"/>
      <stop offset="1" stop-color="#a78bfa"/>
    </linearGradient>
  </defs>
  <rect width="32" height="32" rx="8" fill="#07080d"/>
  <path fill="url(#g)" d="M16 6c-2.8 0-5 2.1-5 4.7 0 1.4.7 2.7 1.8 3.5l-.8 3.2 3.4-1.8c.5.1 1 .2 1.6.2 2.8 0 5-2.1 5-4.7S18.8 6 16 6Zm-6.5 10.2c-2.3 1.3-3.8 3.6-3.8 6.3 0 .6.5 1.1 1.1 1.1h17.4c.6 0 1.1-.5 1.1-1.1 0-2.7-1.5-5-3.8-6.3l-2.1 4.4-3.4-3.1-3.4 3.1-2.1-4.4Z"/>
</svg>
